<svg xmlns="http://www.w3.org/2000/svg" viewBox="-346 256 100 100">
  <path d="M-305.1 276.5a8 8 0 0 0 5.7-3 8.2 8.2 0 0 0 1.9-6 8 8 0 0 0-3-5.8 7.9 7.9 0 0 0-5.9-2 8 8 0 0 0-5.6 3 8.2 8.2 0 0 0-2 6.1 8 8 0 0 0 2.9 5.6 8.4 8.4 0 0 0 6 2z"/>
  <path d="M-263.6 267.3l5.2-2a1.7 1.7 0 1 0-1.2-3.2l-3 1.2 2-3.5a1.7 1.7 0 1 0-2.9-1.7l-2.4 4.3-2.6-5.3a1.7 1.7 0 0 0-3 1.5l3.4 6.9-51 20-.4-.6a3.9 3.9 0 0 0-6.9 3.5l-2.9 1.2a1.7 1.7 0 1 0 1.2 3l3.5-1.3 9 14.1a3.9 3.9 0 0 0 6.9-.7l2.2-6 2.6 10.8-14.8 17.4-.7 1.8-3.9 21-.1 1.2c.2 1.4.8 2.7 2 3.7 1.1 1 2.5 1.5 4 1.4 3-.3 4.6-1.8 5.2-4.4l3.7-19.7 12-13.1 2.7 12.7 1.1 2.3 11.5 19.4c1.2 2 3 3 5.2 2.8 1.6-.2 2.9-.9 4-2a5 5 0 0 0 1.2-4.1c0-.9-.3-1.7-.7-2.4l-10.7-18-9-39.4 6 4.9 3 14c.5 2.1 1.8 3.7 4 3.6 2.5-.2 3.6-2.1 3.3-4.6v-.4l-3.7-16.3c0-.7-.4-1.3-1-1.8l-13.1-10.3-.6-.2 23.6-9.3c-2.9 4.2-6.3 10-6.3 14.6 0 8 5.7 11.3 10.2 11.3 4.6 0 9.9-3.3 9.9-11.3 0-5.5-4.8-13-7.7-17zm-49.7 27.4l-4-6.3 7.4-2.9-3.4 9.2z"/>
</svg>

